<svg xmlns="http://www.w3.org/2000/svg" viewBox="0 0 120 120">
  <circle cx="60" cy="60" r="58" fill="#111827"/>
  <path d="M60 20a30 30 0 00-9.5 58.5c1.5.3 2-0.7 2-1.5v-5.4c-8.2 1.8-9.9-3.5-9.9-3.5-1.4-3.5-3.5-4.4-3.5-4.4-2.9-2 .2-2 .2-2 3.2.2 4.9 3.3 4.9 3.3 2.9 4.9 7.6 3.5 9.5 2.7.3-2.1 1.1-3.5 2-4.3-6.6-.7-13.5-3.3-13.5-14.8 0-3.3 1.2-6 3.3-8.2-.3-.8-1.4-4.1.3-8.5 0 0 2.7-.9 8.7 3.1 2.6-.7 5.3-1 8-1 2.7 0 5.4.3 8 1 6-4 8.7-3.1 8.7-3.1 1.7 4.4.6 7.7.3 8.5 2.1 2.2 3.3 5 3.3 8.2 0 11.5-6.9 14.1-13.6 14.8 1.1 1 2.1 3 2.1 6v8.9c0 .8.5 1.8 2 1.5A30 30 0 0060 20z" fill="#60a5fa"/>
</svg>
